<mxfile host="app.diagrams.net" modified="2024-05-21T04:25:20.798Z" agent="Mozilla/5.0 (Windows NT 10.0; Win64; x64) AppleWebKit/537.36 (KHTML, like Gecko) Chrome/124.0.0.0 Safari/537.36" etag="3E0Y0OXJk0wgR6AK1c7o" version="24.4.4" type="github" pages="2">
  <diagram name="usecase inicial" id="bYyFj0Z4xE3NFgqJFZPs">
    <mxGraphModel dx="954" dy="674" grid="1" gridSize="10" guides="1" tooltips="1" connect="1" arrows="1" fold="1" page="1" pageScale="1" pageWidth="827" pageHeight="1169" math="0" shadow="0">
      <root>
        <mxCell id="0" />
        <mxCell id="1" parent="0" />
        <mxCell id="kUfOZDA0oRcVu0YeKJob-3" value="" style="edgeStyle=orthogonalEdgeStyle;rounded=0;orthogonalLoop=1;jettySize=auto;html=1;" edge="1" parent="1" source="kUfOZDA0oRcVu0YeKJob-1" target="kUfOZDA0oRcVu0YeKJob-2">
          <mxGeometry relative="1" as="geometry" />
        </mxCell>
        <mxCell id="kUfOZDA0oRcVu0YeKJob-1" value="Usuario Comum" style="shape=umlActor;verticalLabelPosition=bottom;verticalAlign=top;html=1;outlineConnect=0;" vertex="1" parent="1">
          <mxGeometry x="70" y="160" width="30" height="60" as="geometry" />
        </mxCell>
        <mxCell id="kUfOZDA0oRcVu0YeKJob-5" value="" style="edgeStyle=orthogonalEdgeStyle;rounded=0;orthogonalLoop=1;jettySize=auto;html=1;" edge="1" parent="1" source="kUfOZDA0oRcVu0YeKJob-2" target="kUfOZDA0oRcVu0YeKJob-4">
          <mxGeometry relative="1" as="geometry" />
        </mxCell>
        <mxCell id="kUfOZDA0oRcVu0YeKJob-2" value="&lt;div&gt;&lt;br&gt;&lt;/div&gt;&lt;div&gt;&lt;br&gt;&lt;/div&gt;trocapontos.com" style="ellipse;shape=cloud;whiteSpace=wrap;html=1;verticalAlign=top;" vertex="1" parent="1">
          <mxGeometry x="135" y="150" width="120" height="80" as="geometry" />
        </mxCell>
        <mxCell id="kUfOZDA0oRcVu0YeKJob-7" value="Troca?" style="edgeStyle=orthogonalEdgeStyle;rounded=0;orthogonalLoop=1;jettySize=auto;html=1;" edge="1" parent="1" source="kUfOZDA0oRcVu0YeKJob-4" target="kUfOZDA0oRcVu0YeKJob-6">
          <mxGeometry relative="1" as="geometry" />
        </mxCell>
        <mxCell id="kUfOZDA0oRcVu0YeKJob-34" value="" style="edgeStyle=orthogonalEdgeStyle;rounded=0;orthogonalLoop=1;jettySize=auto;html=1;" edge="1" parent="1" source="kUfOZDA0oRcVu0YeKJob-4" target="kUfOZDA0oRcVu0YeKJob-33">
          <mxGeometry relative="1" as="geometry" />
        </mxCell>
        <mxCell id="kUfOZDA0oRcVu0YeKJob-35" value="Parceiro" style="edgeLabel;html=1;align=center;verticalAlign=middle;resizable=0;points=[];" vertex="1" connectable="0" parent="kUfOZDA0oRcVu0YeKJob-34">
          <mxGeometry x="0.0222" y="1" relative="1" as="geometry">
            <mxPoint as="offset" />
          </mxGeometry>
        </mxCell>
        <mxCell id="kUfOZDA0oRcVu0YeKJob-4" value="" style="rhombus;whiteSpace=wrap;html=1;verticalAlign=top;" vertex="1" parent="1">
          <mxGeometry x="355" y="150" width="80" height="80" as="geometry" />
        </mxCell>
        <mxCell id="kUfOZDA0oRcVu0YeKJob-9" value="" style="edgeStyle=orthogonalEdgeStyle;rounded=0;orthogonalLoop=1;jettySize=auto;html=1;" edge="1" parent="1" source="kUfOZDA0oRcVu0YeKJob-6" target="kUfOZDA0oRcVu0YeKJob-8">
          <mxGeometry relative="1" as="geometry" />
        </mxCell>
        <mxCell id="kUfOZDA0oRcVu0YeKJob-6" value="Cadastre, compre e troque! Simples assim!" style="whiteSpace=wrap;html=1;verticalAlign=top;" vertex="1" parent="1">
          <mxGeometry x="495" y="160" width="120" height="60" as="geometry" />
        </mxCell>
        <mxCell id="kUfOZDA0oRcVu0YeKJob-11" value="" style="edgeStyle=orthogonalEdgeStyle;rounded=0;orthogonalLoop=1;jettySize=auto;html=1;" edge="1" parent="1" source="kUfOZDA0oRcVu0YeKJob-8" target="kUfOZDA0oRcVu0YeKJob-10">
          <mxGeometry relative="1" as="geometry" />
        </mxCell>
        <mxCell id="kUfOZDA0oRcVu0YeKJob-8" value="Solicitar email" style="whiteSpace=wrap;html=1;verticalAlign=top;" vertex="1" parent="1">
          <mxGeometry x="695" y="160" width="120" height="60" as="geometry" />
        </mxCell>
        <mxCell id="kUfOZDA0oRcVu0YeKJob-13" value="" style="edgeStyle=orthogonalEdgeStyle;rounded=0;orthogonalLoop=1;jettySize=auto;html=1;" edge="1" parent="1" source="kUfOZDA0oRcVu0YeKJob-10" target="kUfOZDA0oRcVu0YeKJob-12">
          <mxGeometry relative="1" as="geometry" />
        </mxCell>
        <mxCell id="kUfOZDA0oRcVu0YeKJob-37" value="" style="edgeStyle=orthogonalEdgeStyle;rounded=0;orthogonalLoop=1;jettySize=auto;html=1;" edge="1" parent="1" source="kUfOZDA0oRcVu0YeKJob-10" target="kUfOZDA0oRcVu0YeKJob-36">
          <mxGeometry relative="1" as="geometry" />
        </mxCell>
        <mxCell id="kUfOZDA0oRcVu0YeKJob-10" value="Definir Senha" style="whiteSpace=wrap;html=1;verticalAlign=top;" vertex="1" parent="1">
          <mxGeometry x="695" y="300" width="120" height="60" as="geometry" />
        </mxCell>
        <mxCell id="kUfOZDA0oRcVu0YeKJob-30" value="" style="edgeStyle=orthogonalEdgeStyle;rounded=0;orthogonalLoop=1;jettySize=auto;html=1;" edge="1" parent="1" source="kUfOZDA0oRcVu0YeKJob-12" target="kUfOZDA0oRcVu0YeKJob-29">
          <mxGeometry relative="1" as="geometry" />
        </mxCell>
        <mxCell id="kUfOZDA0oRcVu0YeKJob-12" value="Dados de cadastro do usuário" style="whiteSpace=wrap;html=1;verticalAlign=top;" vertex="1" parent="1">
          <mxGeometry x="695" y="440" width="120" height="60" as="geometry" />
        </mxCell>
        <mxCell id="kUfOZDA0oRcVu0YeKJob-15" value="List" style="swimlane;fontStyle=0;childLayout=stackLayout;horizontal=1;startSize=30;horizontalStack=0;resizeParent=1;resizeParentMax=0;resizeLast=0;collapsible=1;marginBottom=0;whiteSpace=wrap;html=1;" vertex="1" parent="1">
          <mxGeometry x="930" y="530" width="140" height="240" as="geometry">
            <mxRectangle x="890" y="780" width="60" height="30" as="alternateBounds" />
          </mxGeometry>
        </mxCell>
        <mxCell id="kUfOZDA0oRcVu0YeKJob-16" value="Nome" style="text;strokeColor=none;fillColor=none;align=left;verticalAlign=middle;spacingLeft=4;spacingRight=4;overflow=hidden;points=[[0,0.5],[1,0.5]];portConstraint=eastwest;rotatable=0;whiteSpace=wrap;html=1;" vertex="1" parent="kUfOZDA0oRcVu0YeKJob-15">
          <mxGeometry y="30" width="140" height="30" as="geometry" />
        </mxCell>
        <mxCell id="kUfOZDA0oRcVu0YeKJob-17" value="Sobrenome" style="text;strokeColor=none;fillColor=none;align=left;verticalAlign=middle;spacingLeft=4;spacingRight=4;overflow=hidden;points=[[0,0.5],[1,0.5]];portConstraint=eastwest;rotatable=0;whiteSpace=wrap;html=1;" vertex="1" parent="kUfOZDA0oRcVu0YeKJob-15">
          <mxGeometry y="60" width="140" height="30" as="geometry" />
        </mxCell>
        <mxCell id="kUfOZDA0oRcVu0YeKJob-18" value="Designacao (Sr, Sra, Srta)" style="text;strokeColor=none;fillColor=none;align=left;verticalAlign=middle;spacingLeft=4;spacingRight=4;overflow=hidden;points=[[0,0.5],[1,0.5]];portConstraint=eastwest;rotatable=0;whiteSpace=wrap;html=1;" vertex="1" parent="kUfOZDA0oRcVu0YeKJob-15">
          <mxGeometry y="90" width="140" height="30" as="geometry" />
        </mxCell>
        <mxCell id="kUfOZDA0oRcVu0YeKJob-21" value="Doc Identificaçao" style="text;strokeColor=none;fillColor=none;align=left;verticalAlign=middle;spacingLeft=4;spacingRight=4;overflow=hidden;points=[[0,0.5],[1,0.5]];portConstraint=eastwest;rotatable=0;whiteSpace=wrap;html=1;" vertex="1" parent="kUfOZDA0oRcVu0YeKJob-15">
          <mxGeometry y="120" width="140" height="30" as="geometry" />
        </mxCell>
        <mxCell id="kUfOZDA0oRcVu0YeKJob-20" value="Telefone contato" style="text;strokeColor=none;fillColor=none;align=left;verticalAlign=middle;spacingLeft=4;spacingRight=4;overflow=hidden;points=[[0,0.5],[1,0.5]];portConstraint=eastwest;rotatable=0;whiteSpace=wrap;html=1;" vertex="1" parent="kUfOZDA0oRcVu0YeKJob-15">
          <mxGeometry y="150" width="140" height="30" as="geometry" />
        </mxCell>
        <mxCell id="kUfOZDA0oRcVu0YeKJob-23" value="Endereço" style="text;strokeColor=none;fillColor=none;align=left;verticalAlign=middle;spacingLeft=4;spacingRight=4;overflow=hidden;points=[[0,0.5],[1,0.5]];portConstraint=eastwest;rotatable=0;whiteSpace=wrap;html=1;" vertex="1" parent="kUfOZDA0oRcVu0YeKJob-15">
          <mxGeometry y="180" width="140" height="30" as="geometry" />
        </mxCell>
        <mxCell id="kUfOZDA0oRcVu0YeKJob-22" value="Como conheceu a Trocapontos" style="text;strokeColor=none;fillColor=none;align=left;verticalAlign=middle;spacingLeft=4;spacingRight=4;overflow=hidden;points=[[0,0.5],[1,0.5]];portConstraint=eastwest;rotatable=0;whiteSpace=wrap;html=1;" vertex="1" parent="kUfOZDA0oRcVu0YeKJob-15">
          <mxGeometry y="210" width="140" height="30" as="geometry" />
        </mxCell>
        <mxCell id="kUfOZDA0oRcVu0YeKJob-28" value="" style="endArrow=none;dashed=1;html=1;dashPattern=1 3;strokeWidth=2;rounded=0;entryX=0.95;entryY=0.967;entryDx=0;entryDy=0;exitX=0;exitY=0.083;exitDx=0;exitDy=0;exitPerimeter=0;entryPerimeter=0;" edge="1" parent="1" source="kUfOZDA0oRcVu0YeKJob-15" target="kUfOZDA0oRcVu0YeKJob-12">
          <mxGeometry width="50" height="50" relative="1" as="geometry">
            <mxPoint x="580" y="320" as="sourcePoint" />
            <mxPoint x="630" y="270" as="targetPoint" />
          </mxGeometry>
        </mxCell>
        <mxCell id="kUfOZDA0oRcVu0YeKJob-32" value="" style="edgeStyle=orthogonalEdgeStyle;rounded=0;orthogonalLoop=1;jettySize=auto;html=1;" edge="1" parent="1" source="kUfOZDA0oRcVu0YeKJob-29" target="kUfOZDA0oRcVu0YeKJob-31">
          <mxGeometry relative="1" as="geometry" />
        </mxCell>
        <mxCell id="kUfOZDA0oRcVu0YeKJob-47" value="Sim" style="edgeLabel;html=1;align=center;verticalAlign=middle;resizable=0;points=[];" vertex="1" connectable="0" parent="kUfOZDA0oRcVu0YeKJob-32">
          <mxGeometry x="-0.1" y="1" relative="1" as="geometry">
            <mxPoint as="offset" />
          </mxGeometry>
        </mxCell>
        <mxCell id="kUfOZDA0oRcVu0YeKJob-45" style="edgeStyle=orthogonalEdgeStyle;rounded=0;orthogonalLoop=1;jettySize=auto;html=1;exitX=0;exitY=0.5;exitDx=0;exitDy=0;entryX=0;entryY=0.5;entryDx=0;entryDy=0;" edge="1" parent="1" source="kUfOZDA0oRcVu0YeKJob-29" target="kUfOZDA0oRcVu0YeKJob-12">
          <mxGeometry relative="1" as="geometry" />
        </mxCell>
        <mxCell id="kUfOZDA0oRcVu0YeKJob-46" value="Näo" style="edgeLabel;html=1;align=center;verticalAlign=middle;resizable=0;points=[];" vertex="1" connectable="0" parent="kUfOZDA0oRcVu0YeKJob-45">
          <mxGeometry x="-0.79" y="1" relative="1" as="geometry">
            <mxPoint as="offset" />
          </mxGeometry>
        </mxCell>
        <mxCell id="kUfOZDA0oRcVu0YeKJob-29" value="&lt;div&gt;&lt;br&gt;&lt;/div&gt;&lt;div&gt;&lt;br&gt;&lt;/div&gt;&lt;div&gt;Finalizado?&lt;/div&gt;" style="rhombus;whiteSpace=wrap;html=1;verticalAlign=top;" vertex="1" parent="1">
          <mxGeometry x="715" y="570" width="80" height="80" as="geometry" />
        </mxCell>
        <mxCell id="kUfOZDA0oRcVu0YeKJob-31" value="&lt;div&gt;&lt;br&gt;&lt;/div&gt;Usuario cadastrado" style="ellipse;whiteSpace=wrap;html=1;verticalAlign=top;" vertex="1" parent="1">
          <mxGeometry x="715" y="730" width="80" height="80" as="geometry" />
        </mxCell>
        <mxCell id="kUfOZDA0oRcVu0YeKJob-49" value="" style="edgeStyle=orthogonalEdgeStyle;rounded=0;orthogonalLoop=1;jettySize=auto;html=1;" edge="1" parent="1" source="kUfOZDA0oRcVu0YeKJob-33" target="kUfOZDA0oRcVu0YeKJob-48">
          <mxGeometry relative="1" as="geometry" />
        </mxCell>
        <mxCell id="kUfOZDA0oRcVu0YeKJob-33" value="Solicitar email (Office 365, Icloud, gmail, outro)" style="rounded=1;whiteSpace=wrap;html=1;verticalAlign=top;" vertex="1" parent="1">
          <mxGeometry x="335" y="320" width="120" height="60" as="geometry" />
        </mxCell>
        <mxCell id="kUfOZDA0oRcVu0YeKJob-39" value="" style="edgeStyle=orthogonalEdgeStyle;rounded=0;orthogonalLoop=1;jettySize=auto;html=1;" edge="1" parent="1" source="kUfOZDA0oRcVu0YeKJob-36" target="kUfOZDA0oRcVu0YeKJob-38">
          <mxGeometry relative="1" as="geometry" />
        </mxCell>
        <mxCell id="kUfOZDA0oRcVu0YeKJob-36" value="Envio de codigo para email&amp;nbsp;" style="whiteSpace=wrap;html=1;verticalAlign=top;" vertex="1" parent="1">
          <mxGeometry x="895" y="300" width="120" height="60" as="geometry" />
        </mxCell>
        <mxCell id="kUfOZDA0oRcVu0YeKJob-40" style="edgeStyle=orthogonalEdgeStyle;rounded=0;orthogonalLoop=1;jettySize=auto;html=1;entryX=1;entryY=0.5;entryDx=0;entryDy=0;exitX=0.5;exitY=1;exitDx=0;exitDy=0;" edge="1" parent="1" source="kUfOZDA0oRcVu0YeKJob-38" target="kUfOZDA0oRcVu0YeKJob-12">
          <mxGeometry relative="1" as="geometry" />
        </mxCell>
        <mxCell id="kUfOZDA0oRcVu0YeKJob-41" value="Confirmado" style="edgeLabel;html=1;align=center;verticalAlign=middle;resizable=0;points=[];" vertex="1" connectable="0" parent="kUfOZDA0oRcVu0YeKJob-40">
          <mxGeometry x="-0.1364" relative="1" as="geometry">
            <mxPoint as="offset" />
          </mxGeometry>
        </mxCell>
        <mxCell id="kUfOZDA0oRcVu0YeKJob-43" value="" style="edgeStyle=orthogonalEdgeStyle;rounded=0;orthogonalLoop=1;jettySize=auto;html=1;" edge="1" parent="1" source="kUfOZDA0oRcVu0YeKJob-38" target="kUfOZDA0oRcVu0YeKJob-42">
          <mxGeometry relative="1" as="geometry" />
        </mxCell>
        <mxCell id="kUfOZDA0oRcVu0YeKJob-38" value="" style="rhombus;whiteSpace=wrap;html=1;verticalAlign=top;" vertex="1" parent="1">
          <mxGeometry x="1115" y="290" width="80" height="80" as="geometry" />
        </mxCell>
        <mxCell id="kUfOZDA0oRcVu0YeKJob-42" value="&lt;div&gt;&lt;br&gt;&lt;/div&gt;&lt;span style=&quot;background-color: initial;&quot;&gt;&lt;div&gt;&lt;span style=&quot;background-color: initial;&quot;&gt;&lt;br&gt;&lt;/span&gt;&lt;/div&gt;Erro&lt;/span&gt;" style="ellipse;whiteSpace=wrap;html=1;verticalAlign=top;" vertex="1" parent="1">
          <mxGeometry x="1275" y="700" width="80" height="80" as="geometry" />
        </mxCell>
        <mxCell id="kUfOZDA0oRcVu0YeKJob-59" value="" style="edgeStyle=orthogonalEdgeStyle;rounded=0;orthogonalLoop=1;jettySize=auto;html=1;" edge="1" parent="1" source="kUfOZDA0oRcVu0YeKJob-48" target="kUfOZDA0oRcVu0YeKJob-58">
          <mxGeometry relative="1" as="geometry" />
        </mxCell>
        <mxCell id="kUfOZDA0oRcVu0YeKJob-48" value="Definir senha" style="whiteSpace=wrap;html=1;verticalAlign=top;rounded=1;" vertex="1" parent="1">
          <mxGeometry x="335" y="460" width="120" height="60" as="geometry" />
        </mxCell>
        <mxCell id="kUfOZDA0oRcVu0YeKJob-50" value="List" style="swimlane;fontStyle=0;childLayout=stackLayout;horizontal=1;startSize=30;horizontalStack=0;resizeParent=1;resizeParentMax=0;resizeLast=0;collapsible=1;marginBottom=0;whiteSpace=wrap;html=1;" vertex="1" parent="1">
          <mxGeometry x="495" y="450" width="140" height="240" as="geometry">
            <mxRectangle x="890" y="780" width="60" height="30" as="alternateBounds" />
          </mxGeometry>
        </mxCell>
        <mxCell id="kUfOZDA0oRcVu0YeKJob-51" value="Nome" style="text;strokeColor=none;fillColor=none;align=left;verticalAlign=middle;spacingLeft=4;spacingRight=4;overflow=hidden;points=[[0,0.5],[1,0.5]];portConstraint=eastwest;rotatable=0;whiteSpace=wrap;html=1;" vertex="1" parent="kUfOZDA0oRcVu0YeKJob-50">
          <mxGeometry y="30" width="140" height="30" as="geometry" />
        </mxCell>
        <mxCell id="kUfOZDA0oRcVu0YeKJob-52" value="Sobrenome" style="text;strokeColor=none;fillColor=none;align=left;verticalAlign=middle;spacingLeft=4;spacingRight=4;overflow=hidden;points=[[0,0.5],[1,0.5]];portConstraint=eastwest;rotatable=0;whiteSpace=wrap;html=1;" vertex="1" parent="kUfOZDA0oRcVu0YeKJob-50">
          <mxGeometry y="60" width="140" height="30" as="geometry" />
        </mxCell>
        <mxCell id="kUfOZDA0oRcVu0YeKJob-53" value="Designacao (Sr, Sra, Srta)" style="text;strokeColor=none;fillColor=none;align=left;verticalAlign=middle;spacingLeft=4;spacingRight=4;overflow=hidden;points=[[0,0.5],[1,0.5]];portConstraint=eastwest;rotatable=0;whiteSpace=wrap;html=1;" vertex="1" parent="kUfOZDA0oRcVu0YeKJob-50">
          <mxGeometry y="90" width="140" height="30" as="geometry" />
        </mxCell>
        <mxCell id="kUfOZDA0oRcVu0YeKJob-54" value="Doc Identificaçao" style="text;strokeColor=none;fillColor=none;align=left;verticalAlign=middle;spacingLeft=4;spacingRight=4;overflow=hidden;points=[[0,0.5],[1,0.5]];portConstraint=eastwest;rotatable=0;whiteSpace=wrap;html=1;" vertex="1" parent="kUfOZDA0oRcVu0YeKJob-50">
          <mxGeometry y="120" width="140" height="30" as="geometry" />
        </mxCell>
        <mxCell id="kUfOZDA0oRcVu0YeKJob-55" value="Telefone contato" style="text;strokeColor=none;fillColor=none;align=left;verticalAlign=middle;spacingLeft=4;spacingRight=4;overflow=hidden;points=[[0,0.5],[1,0.5]];portConstraint=eastwest;rotatable=0;whiteSpace=wrap;html=1;" vertex="1" parent="kUfOZDA0oRcVu0YeKJob-50">
          <mxGeometry y="150" width="140" height="30" as="geometry" />
        </mxCell>
        <mxCell id="kUfOZDA0oRcVu0YeKJob-56" value="Endereço" style="text;strokeColor=none;fillColor=none;align=left;verticalAlign=middle;spacingLeft=4;spacingRight=4;overflow=hidden;points=[[0,0.5],[1,0.5]];portConstraint=eastwest;rotatable=0;whiteSpace=wrap;html=1;" vertex="1" parent="kUfOZDA0oRcVu0YeKJob-50">
          <mxGeometry y="180" width="140" height="30" as="geometry" />
        </mxCell>
        <mxCell id="kUfOZDA0oRcVu0YeKJob-57" value="Como conheceu a Trocapontos" style="text;strokeColor=none;fillColor=none;align=left;verticalAlign=middle;spacingLeft=4;spacingRight=4;overflow=hidden;points=[[0,0.5],[1,0.5]];portConstraint=eastwest;rotatable=0;whiteSpace=wrap;html=1;" vertex="1" parent="kUfOZDA0oRcVu0YeKJob-50">
          <mxGeometry y="210" width="140" height="30" as="geometry" />
        </mxCell>
        <mxCell id="kUfOZDA0oRcVu0YeKJob-73" value="" style="edgeStyle=orthogonalEdgeStyle;rounded=0;orthogonalLoop=1;jettySize=auto;html=1;" edge="1" parent="1" source="kUfOZDA0oRcVu0YeKJob-58" target="kUfOZDA0oRcVu0YeKJob-72">
          <mxGeometry relative="1" as="geometry" />
        </mxCell>
        <mxCell id="kUfOZDA0oRcVu0YeKJob-58" value="Dados de cadastro" style="whiteSpace=wrap;html=1;verticalAlign=top;rounded=1;" vertex="1" parent="1">
          <mxGeometry x="335" y="600" width="120" height="60" as="geometry" />
        </mxCell>
        <mxCell id="kUfOZDA0oRcVu0YeKJob-60" value="List" style="swimlane;fontStyle=0;childLayout=stackLayout;horizontal=1;startSize=30;horizontalStack=0;resizeParent=1;resizeParentMax=0;resizeLast=0;collapsible=1;marginBottom=0;whiteSpace=wrap;html=1;" vertex="1" parent="1">
          <mxGeometry x="130" y="610" width="140" height="300" as="geometry">
            <mxRectangle x="890" y="780" width="60" height="30" as="alternateBounds" />
          </mxGeometry>
        </mxCell>
        <mxCell id="kUfOZDA0oRcVu0YeKJob-61" value="Nome Social" style="text;strokeColor=none;fillColor=none;align=left;verticalAlign=middle;spacingLeft=4;spacingRight=4;overflow=hidden;points=[[0,0.5],[1,0.5]];portConstraint=eastwest;rotatable=0;whiteSpace=wrap;html=1;" vertex="1" parent="kUfOZDA0oRcVu0YeKJob-60">
          <mxGeometry y="30" width="140" height="30" as="geometry" />
        </mxCell>
        <mxCell id="kUfOZDA0oRcVu0YeKJob-62" value="CNPJ" style="text;strokeColor=none;fillColor=none;align=left;verticalAlign=middle;spacingLeft=4;spacingRight=4;overflow=hidden;points=[[0,0.5],[1,0.5]];portConstraint=eastwest;rotatable=0;whiteSpace=wrap;html=1;" vertex="1" parent="kUfOZDA0oRcVu0YeKJob-60">
          <mxGeometry y="60" width="140" height="30" as="geometry" />
        </mxCell>
        <mxCell id="kUfOZDA0oRcVu0YeKJob-63" value="Ramo atividade" style="text;strokeColor=none;fillColor=none;align=left;verticalAlign=middle;spacingLeft=4;spacingRight=4;overflow=hidden;points=[[0,0.5],[1,0.5]];portConstraint=eastwest;rotatable=0;whiteSpace=wrap;html=1;" vertex="1" parent="kUfOZDA0oRcVu0YeKJob-60">
          <mxGeometry y="90" width="140" height="30" as="geometry" />
        </mxCell>
        <mxCell id="kUfOZDA0oRcVu0YeKJob-64" value="Responsavel para contato" style="text;strokeColor=none;fillColor=none;align=left;verticalAlign=middle;spacingLeft=4;spacingRight=4;overflow=hidden;points=[[0,0.5],[1,0.5]];portConstraint=eastwest;rotatable=0;whiteSpace=wrap;html=1;" vertex="1" parent="kUfOZDA0oRcVu0YeKJob-60">
          <mxGeometry y="120" width="140" height="30" as="geometry" />
        </mxCell>
        <mxCell id="kUfOZDA0oRcVu0YeKJob-65" value="Telefone contato" style="text;strokeColor=none;fillColor=none;align=left;verticalAlign=middle;spacingLeft=4;spacingRight=4;overflow=hidden;points=[[0,0.5],[1,0.5]];portConstraint=eastwest;rotatable=0;whiteSpace=wrap;html=1;" vertex="1" parent="kUfOZDA0oRcVu0YeKJob-60">
          <mxGeometry y="150" width="140" height="30" as="geometry" />
        </mxCell>
        <mxCell id="kUfOZDA0oRcVu0YeKJob-66" value="Endereço" style="text;strokeColor=none;fillColor=none;align=left;verticalAlign=middle;spacingLeft=4;spacingRight=4;overflow=hidden;points=[[0,0.5],[1,0.5]];portConstraint=eastwest;rotatable=0;whiteSpace=wrap;html=1;" vertex="1" parent="kUfOZDA0oRcVu0YeKJob-60">
          <mxGeometry y="180" width="140" height="30" as="geometry" />
        </mxCell>
        <mxCell id="kUfOZDA0oRcVu0YeKJob-69" value="&lt;meta charset=&quot;utf-8&quot;&gt;&lt;span style=&quot;color: rgb(0, 0, 0); font-family: Helvetica; font-size: 12px; font-style: normal; font-variant-ligatures: normal; font-variant-caps: normal; font-weight: 400; letter-spacing: normal; orphans: 2; text-align: left; text-indent: 0px; text-transform: none; widows: 2; word-spacing: 0px; -webkit-text-stroke-width: 0px; white-space: normal; background-color: rgb(251, 251, 251); text-decoration-thickness: initial; text-decoration-style: initial; text-decoration-color: initial; display: inline !important; float: none;&quot;&gt;Como conheceu a Trocapontos&lt;/span&gt;" style="text;strokeColor=none;fillColor=none;align=left;verticalAlign=middle;spacingLeft=4;spacingRight=4;overflow=hidden;points=[[0,0.5],[1,0.5]];portConstraint=eastwest;rotatable=0;whiteSpace=wrap;html=1;" vertex="1" parent="kUfOZDA0oRcVu0YeKJob-60">
          <mxGeometry y="210" width="140" height="30" as="geometry" />
        </mxCell>
        <mxCell id="kUfOZDA0oRcVu0YeKJob-70" style="text;strokeColor=none;fillColor=none;align=left;verticalAlign=middle;spacingLeft=4;spacingRight=4;overflow=hidden;points=[[0,0.5],[1,0.5]];portConstraint=eastwest;rotatable=0;whiteSpace=wrap;html=1;" vertex="1" parent="kUfOZDA0oRcVu0YeKJob-60">
          <mxGeometry y="240" width="140" height="30" as="geometry" />
        </mxCell>
        <mxCell id="kUfOZDA0oRcVu0YeKJob-71" style="text;strokeColor=none;fillColor=none;align=left;verticalAlign=middle;spacingLeft=4;spacingRight=4;overflow=hidden;points=[[0,0.5],[1,0.5]];portConstraint=eastwest;rotatable=0;whiteSpace=wrap;html=1;" vertex="1" parent="kUfOZDA0oRcVu0YeKJob-60">
          <mxGeometry y="270" width="140" height="30" as="geometry" />
        </mxCell>
        <mxCell id="kUfOZDA0oRcVu0YeKJob-68" value="" style="endArrow=none;dashed=1;html=1;dashPattern=1 3;strokeWidth=2;rounded=0;exitX=1.021;exitY=0.092;exitDx=0;exitDy=0;exitPerimeter=0;" edge="1" parent="1" source="kUfOZDA0oRcVu0YeKJob-60">
          <mxGeometry width="50" height="50" relative="1" as="geometry">
            <mxPoint x="285" y="640" as="sourcePoint" />
            <mxPoint x="330" y="630" as="targetPoint" />
          </mxGeometry>
        </mxCell>
        <mxCell id="kUfOZDA0oRcVu0YeKJob-75" value="" style="edgeStyle=orthogonalEdgeStyle;rounded=0;orthogonalLoop=1;jettySize=auto;html=1;" edge="1" parent="1" source="kUfOZDA0oRcVu0YeKJob-72" target="kUfOZDA0oRcVu0YeKJob-74">
          <mxGeometry relative="1" as="geometry" />
        </mxCell>
        <mxCell id="kUfOZDA0oRcVu0YeKJob-72" value="Video demonstrativo" style="whiteSpace=wrap;html=1;verticalAlign=top;rounded=1;" vertex="1" parent="1">
          <mxGeometry x="335" y="740" width="120" height="60" as="geometry" />
        </mxCell>
        <mxCell id="kUfOZDA0oRcVu0YeKJob-77" value="" style="edgeStyle=orthogonalEdgeStyle;rounded=0;orthogonalLoop=1;jettySize=auto;html=1;" edge="1" parent="1" source="kUfOZDA0oRcVu0YeKJob-74" target="kUfOZDA0oRcVu0YeKJob-76">
          <mxGeometry relative="1" as="geometry" />
        </mxCell>
        <mxCell id="kUfOZDA0oRcVu0YeKJob-74" value="Abrir opçao trial para experimentar por 10 dias" style="whiteSpace=wrap;html=1;verticalAlign=top;rounded=1;" vertex="1" parent="1">
          <mxGeometry x="335" y="880" width="120" height="60" as="geometry" />
        </mxCell>
        <mxCell id="kUfOZDA0oRcVu0YeKJob-76" value="Opçóes cadastrar lista, upload excel, API&amp;nbsp;" style="whiteSpace=wrap;html=1;verticalAlign=top;rounded=1;" vertex="1" parent="1">
          <mxGeometry x="335" y="1020" width="120" height="60" as="geometry" />
        </mxCell>
      </root>
    </mxGraphModel>
  </diagram>
  <diagram id="sUHOwO_vQOq9h0RU0Alf" name="Página-2">
    <mxGraphModel dx="1434" dy="738" grid="1" gridSize="10" guides="1" tooltips="1" connect="1" arrows="1" fold="1" page="1" pageScale="1" pageWidth="827" pageHeight="1169" math="0" shadow="0">
      <root>
        <mxCell id="0" />
        <mxCell id="1" parent="0" />
        <mxCell id="yFf3sp5n4ByeulcugOG3-4" value="" style="edgeStyle=orthogonalEdgeStyle;rounded=0;orthogonalLoop=1;jettySize=auto;html=1;" edge="1" parent="1" source="yFf3sp5n4ByeulcugOG3-2" target="yFf3sp5n4ByeulcugOG3-3">
          <mxGeometry relative="1" as="geometry" />
        </mxCell>
        <mxCell id="yFf3sp5n4ByeulcugOG3-2" value="pagar" style="rounded=0;whiteSpace=wrap;html=1;" vertex="1" parent="1">
          <mxGeometry x="120" y="80" width="120" height="60" as="geometry" />
        </mxCell>
        <mxCell id="yFf3sp5n4ByeulcugOG3-3" value="registrar transação como INIT_PAYMENT&lt;div&gt;payment_id&lt;/div&gt;&lt;div&gt;partner_id&lt;/div&gt;" style="rounded=0;whiteSpace=wrap;html=1;" vertex="1" parent="1">
          <mxGeometry x="120" y="210" width="120" height="90" as="geometry" />
        </mxCell>
        <mxCell id="yFf3sp5n4ByeulcugOG3-11" value="" style="edgeStyle=orthogonalEdgeStyle;rounded=0;orthogonalLoop=1;jettySize=auto;html=1;" edge="1" parent="1" source="yFf3sp5n4ByeulcugOG3-5" target="yFf3sp5n4ByeulcugOG3-7">
          <mxGeometry relative="1" as="geometry" />
        </mxCell>
        <mxCell id="yFf3sp5n4ByeulcugOG3-5" value="registrar transação como CONFIRM_PAYMENT" style="rounded=0;whiteSpace=wrap;html=1;" vertex="1" parent="1">
          <mxGeometry x="354" y="350" width="120" height="60" as="geometry" />
        </mxCell>
        <mxCell id="yFf3sp5n4ByeulcugOG3-13" value="" style="edgeStyle=orthogonalEdgeStyle;rounded=0;orthogonalLoop=1;jettySize=auto;html=1;" edge="1" parent="1" source="yFf3sp5n4ByeulcugOG3-6" target="yFf3sp5n4ByeulcugOG3-12">
          <mxGeometry relative="1" as="geometry" />
        </mxCell>
        <mxCell id="yFf3sp5n4ByeulcugOG3-6" value="confirm payment com paymentid" style="rounded=0;whiteSpace=wrap;html=1;" vertex="1" parent="1">
          <mxGeometry x="354" y="80" width="120" height="60" as="geometry" />
        </mxCell>
        <mxCell id="yFf3sp5n4ByeulcugOG3-9" value="" style="edgeStyle=orthogonalEdgeStyle;rounded=0;orthogonalLoop=1;jettySize=auto;html=1;" edge="1" parent="1" source="yFf3sp5n4ByeulcugOG3-7" target="yFf3sp5n4ByeulcugOG3-8">
          <mxGeometry relative="1" as="geometry" />
        </mxCell>
        <mxCell id="yFf3sp5n4ByeulcugOG3-7" value="registrar transação como CREDIT_POINTS" style="rounded=0;whiteSpace=wrap;html=1;" vertex="1" parent="1">
          <mxGeometry x="354" y="450" width="120" height="60" as="geometry" />
        </mxCell>
        <mxCell id="yFf3sp5n4ByeulcugOG3-8" value="adicionar dinheiro na conta do parceiro" style="rounded=0;whiteSpace=wrap;html=1;" vertex="1" parent="1">
          <mxGeometry x="540" y="450" width="120" height="60" as="geometry" />
        </mxCell>
        <mxCell id="yFf3sp5n4ByeulcugOG3-14" value="" style="edgeStyle=orthogonalEdgeStyle;rounded=0;orthogonalLoop=1;jettySize=auto;html=1;" edge="1" parent="1" source="yFf3sp5n4ByeulcugOG3-12" target="yFf3sp5n4ByeulcugOG3-5">
          <mxGeometry relative="1" as="geometry" />
        </mxCell>
        <mxCell id="yFf3sp5n4ByeulcugOG3-12" value="pesquisar parceiro e usuario que pagou" style="whiteSpace=wrap;html=1;rounded=0;" vertex="1" parent="1">
          <mxGeometry x="354" y="210" width="120" height="60" as="geometry" />
        </mxCell>
      </root>
    </mxGraphModel>
  </diagram>
</mxfile>
